<svg version="1.0" xmlns="http://www.w3.org/2000/svg"
 width="60pt" height="60pt" viewBox="0 0 560.000000 378.000000"
 preserveAspectRatio="xMidYMid meet">

<g transform="translate(0.000000,378.000000) scale(0.100000,-0.100000)"
fill="currentColor" stroke="none">
<path d="M3205 3243 c-33 -60 -69 -126 -81 -148 -12 -22 -94 -170 -184 -330
-89 -159 -225 -406 -303 -547 -78 -142 -145 -258 -149 -258 -5 0 -8 182 -8
405 l0 405 -160 0 -160 0 0 -805 0 -805 129 0 128 0 98 178 c54 97 106 191
115 207 117 208 315 564 400 720 18 33 36 65 40 70 4 6 57 100 117 210 61 110
153 277 205 370 52 94 107 191 121 217 15 26 47 84 72 128 25 43 45 82 45 85
0 3 -82 5 -183 5 l-184 0 -58 -107z"/>
<path d="M2977 1858 c-53 -92 -157 -282 -157 -286 0 -3 51 -97 112 -208 l113
-204 182 0 c101 0 183 2 183 4 0 5 -399 728 -405 734 -2 2 -14 -16 -28 -40z"/>
<path d="M4080 896 c-6 -8 -10 -25 -8 -38 2 -18 9 -23 33 -23 24 0 31 5 33 23
4 25 -13 52 -33 52 -7 0 -18 -7 -25 -14z"/>
<path d="M2250 665 l0 -235 30 0 c30 0 30 1 30 53 0 44 4 58 26 77 29 28 25
31 76 -67 32 -60 35 -63 71 -63 l38 0 -43 78 c-23 42 -47 86 -55 97 -20 30
-17 39 38 104 l51 61 -35 0 c-31 0 -42 -8 -94 -69 -32 -38 -61 -70 -65 -70 -5
-1 -8 60 -8 134 l0 135 -30 0 -30 0 0 -235z"/>
<path d="M3080 825 c0 -41 -2 -75 -4 -75 -2 0 -17 7 -32 15 -36 19 -56 19 -99
1 -50 -21 -65 -59 -65 -166 0 -97 14 -141 49 -160 29 -15 104 -12 127 5 25 19
34 19 34 0 0 -9 9 -15 25 -15 l25 0 0 235 0 235 -30 0 -30 0 0 -75z m-21 -131
c17 -21 21 -41 21 -96 0 -60 -3 -72 -25 -93 -29 -30 -55 -32 -86 -6 -22 17
-24 27 -24 99 0 65 4 84 19 101 27 30 70 27 95 -5z"/>
<path d="M1140 885 c0 -3 0 -95 0 -205 0 -110 0 -211 0 -225 l0 -25 125 0 125
0 0 30 0 29 -92 3 -93 3 -3 198 -2 197 -30 0 c-17 0 -30 -2 -30 -5z"/>
<path d="M1987 883 c-7 -12 -137 -434 -137 -445 0 -5 15 -8 32 -6 28 3 34 8
44 43 l11 40 84 0 83 0 12 -40 c10 -37 14 -40 49 -43 31 -3 37 0 32 12 -5 13
-113 361 -133 429 -4 12 -16 17 -39 17 -19 0 -36 -3 -38 -7z m66 -190 c15 -54
28 -101 27 -105 0 -10 -120 -10 -120 -1 0 17 55 203 60 203 3 0 18 -44 33 -97z"/>
<path d="M1491 767 c-41 -21 -62 -60 -68 -124 -13 -142 24 -213 112 -213 25 0
56 7 69 15 21 14 24 14 29 0 4 -8 18 -15 32 -15 l25 0 0 170 0 170 -25 0 c-14
0 -28 -6 -31 -14 -4 -11 -12 -10 -42 5 -42 22 -68 24 -101 6z m109 -67 c17
-17 20 -33 20 -100 0 -89 -17 -120 -65 -120 -48 0 -65 31 -65 120 0 89 17 120
65 120 14 0 34 -9 45 -20z"/>
<path d="M2624 773 c-12 -2 -32 -15 -45 -29 -20 -21 -25 -39 -29 -103 -7 -112
1 -160 34 -188 32 -27 109 -32 143 -8 19 13 22 13 27 0 3 -8 17 -15 31 -15
l25 0 0 170 0 170 -25 0 c-14 0 -28 -6 -31 -14 -4 -11 -12 -10 -42 5 -36 19
-47 20 -88 12z m96 -71 c21 -17 23 -28 24 -101 1 -75 -2 -85 -23 -102 -30 -25
-66 -24 -91 1 -17 17 -20 33 -20 100 0 67 3 83 20 100 25 25 61 26 90 2z"/>
<path d="M3291 767 c-55 -20 -75 -56 -79 -144 -8 -139 29 -193 131 -193 58 0
99 19 115 55 19 42 15 55 -18 55 -18 0 -30 -5 -30 -13 0 -23 -35 -47 -67 -47
-45 0 -67 30 -64 88 1 21 4 22 96 22 l95 0 0 48 c0 26 -6 58 -13 71 -28 56
-102 82 -166 58z m103 -69 c9 -12 16 -31 16 -41 0 -16 -8 -18 -67 -15 -62 3
-68 5 -65 23 10 55 86 76 116 33z"/>
<path d="M3637 761 c-32 -16 -39 -17 -44 -5 -3 8 -16 14 -29 14 l-24 0 0 -170
0 -170 30 0 30 0 0 119 c0 105 2 121 21 145 24 31 68 35 92 8 14 -15 17 -41
17 -145 l0 -127 35 0 35 0 0 125 c0 112 2 127 20 145 11 11 31 20 45 20 14 0
34 -9 45 -20 18 -18 20 -33 20 -146 l0 -125 33 3 32 3 0 130 c0 152 -12 186
-70 205 -45 15 -82 6 -116 -26 -23 -22 -27 -23 -33 -9 -6 16 -63 45 -89 45 -7
0 -30 -9 -50 -19z"/>
<path d="M4283 773 c-12 -2 -34 -18 -48 -34 -23 -29 -25 -37 -25 -141 0 -108
0 -110 29 -139 25 -24 38 -29 78 -29 28 0 58 7 71 16 20 14 23 14 28 0 3 -9
17 -16 30 -16 l24 0 0 170 0 170 -24 0 c-13 0 -26 -6 -29 -14 -5 -12 -12 -11
-44 5 -37 19 -47 20 -90 12z m98 -72 c22 -17 24 -27 24 -101 0 -74 -2 -84 -24
-101 -33 -27 -66 -24 -90 7 -30 38 -30 160 -1 192 26 27 60 28 91 3z"/>
<path d="M4070 600 l0 -170 35 0 35 0 0 170 0 170 -35 0 -35 0 0 -170z"/>
</g>
</svg>
